QuixoticSeven-BoldItalic.ufo
<glyph name="exclam" format="2">
  <advance width="583"/>
  <unicode hex="0021"/>
  <outline>
    <contour>
      <point x="467.0" y="0.0" type="curve" smooth="yes"/>
      <point x="469.0" y="39.0"/>
      <point x="500.0" y="70.0"/>
      <point x="536.0" y="70.0" type="curve" smooth="yes"/>
      <point x="572.0" y="70.0"/>
      <point x="599.0" y="39.0"/>
      <point x="597.0" y="0.0" type="curve" smooth="yes"/>
      <point x="595.0" y="-39.0"/>
      <point x="564.0" y="-70.0"/>
      <point x="528.0" y="-70.0" type="curve" smooth="yes"/>
      <point x="492.0" y="-70.0"/>
      <point x="465.0" y="-39.0"/>
    </contour>
    <contour>
      <point x="435.0" y="52.0" type="line" smooth="yes"/>
      <point x="354.0" y="144.0" type="line" smooth="yes"/>
      <point x="362.0" y="294.0" type="line" smooth="yes"/>
      <point x="452.0" y="386.0" type="line" smooth="yes"/>
      <point x="486.0" y="348.0" type="line" smooth="yes"/>
      <point x="472.0" y="90.0" type="line" smooth="yes"/>
    </contour>
    <contour>
      <point x="454.0" y="414.0" type="line" smooth="yes"/>
      <point x="373.0" y="506.0" type="line" smooth="yes"/>
      <point x="381.0" y="656.0" type="line" smooth="yes"/>
      <point x="471.0" y="748.0" type="line" smooth="yes"/>
      <point x="505.0" y="710.0" type="line" smooth="yes"/>
      <point x="491.0" y="452.0" type="line" smooth="yes"/>
    </contour>
  </outline>
</glyph>
<glyph name="quotedbl" format="2">
  <advance width="583"/>
  <unicode hex="0022"/>
  <outline>
    <contour>
      <point x="132.0" y="414.0" type="line" smooth="yes"/>
      <point x="96.0" y="452.0" type="line" smooth="yes"/>
      <point x="109.0" y="710.0" type="line" smooth="yes"/>
      <point x="149.0" y="748.0" type="line" smooth="yes"/>
      <point x="236.0" y="656.0" type="line" smooth="yes"/>
      <point x="228.0" y="506.0" type="line" smooth="yes"/>
    </contour>
    <contour>
      <point x="495.0" y="414.0" type="line" smooth="yes"/>
      <point x="407.0" y="506.0" type="line" smooth="yes"/>
      <point x="415.0" y="656.0" type="line" smooth="yes"/>
      <point x="512.0" y="748.0" type="line" smooth="yes"/>
      <point x="548.0" y="710.0" type="line" smooth="yes"/>
      <point x="535.0" y="452.0" type="line" smooth="yes"/>
    </contour>
  </outline>
</glyph>
<glyph name="numbersign" format="2">
  <advance width="583"/>
  <unicode hex="0023"/>
  <outline>
    <contour>
      <point x="134.0" y="400.0" type="line" smooth="yes"/>
      <point x="198.0" y="465.0" type="line" smooth="yes"/>
      <point x="388.0" y="465.0" type="line" smooth="yes"/>
      <point x="445.0" y="400.0" type="line" smooth="yes"/>
      <point x="381.0" y="335.0" type="line" smooth="yes"/>
      <point x="191.0" y="335.0" type="line" smooth="yes"/>
    </contour>
    <contour>
      <point x="123.0" y="414.0" type="line" smooth="yes"/>
      <point x="89.0" y="452.0" type="line" smooth="yes"/>
      <point x="103.0" y="710.0" type="line" smooth="yes"/>
      <point x="140.0" y="748.0" type="line" smooth="yes"/>
      <point x="221.0" y="656.0" type="line" smooth="yes"/>
      <point x="213.0" y="506.0" type="line" smooth="yes"/>
    </contour>
    <contour>
      <point x="104.0" y="52.0" type="line" smooth="yes"/>
      <point x="70.0" y="90.0" type="line" smooth="yes"/>
      <point x="84.0" y="348.0" type="line" smooth="yes"/>
      <point x="121.0" y="386.0" type="line" smooth="yes"/>
      <point x="202.0" y="294.0" type="line" smooth="yes"/>
      <point x="194.0" y="144.0" type="line" smooth="yes"/>
    </contour>
    <contour>
      <point x="115.0" y="38.0" type="line" smooth="yes"/>
      <point x="205.0" y="130.0" type="line" smooth="yes"/>
      <point x="346.0" y="130.0" type="line" smooth="yes"/>
      <point x="426.0" y="38.0" type="line" smooth="yes"/>
      <point x="389.0" y="0.0" type="line" smooth="yes"/>
      <point x="148.0" y="0.0" type="line" smooth="yes"/>
    </contour>
    <contour>
      <point x="435.0" y="52.0" type="line" smooth="yes"/>
      <point x="354.0" y="144.0" type="line" smooth="yes"/>
      <point x="362.0" y="294.0" type="line" smooth="yes"/>
      <point x="452.0" y="386.0" type="line" smooth="yes"/>
      <point x="486.0" y="348.0" type="line" smooth="yes"/>
      <point x="472.0" y="90.0" type="line" smooth="yes"/>
    </contour>
    <contour>
      <point x="454.0" y="414.0" type="line" smooth="yes"/>
      <point x="373.0" y="506.0" type="line" smooth="yes"/>
      <point x="381.0" y="656.0" type="line" smooth="yes"/>
      <point x="471.0" y="748.0" type="line" smooth="yes"/>
      <point x="505.0" y="710.0" type="line" smooth="yes"/>
      <point x="491.0" y="452.0" type="line" smooth="yes"/>
    </contour>
  </outline>
</glyph>
<glyph name="dollar" format="2">
  <advance width="583"/>
  <unicode hex="0024"/>
  <outline>
    <contour>
      <point x="134.0" y="400.0" type="line" smooth="yes"/>
      <point x="198.0" y="465.0" type="line" smooth="yes"/>
      <point x="388.0" y="465.0" type="line" smooth="yes"/>
      <point x="445.0" y="400.0" type="line" smooth="yes"/>
      <point x="381.0" y="335.0" type="line" smooth="yes"/>
      <point x="191.0" y="335.0" type="line" smooth="yes"/>
    </contour>
    <contour>
      <point x="123.0" y="414.0" type="line" smooth="yes"/>
      <point x="89.0" y="452.0" type="line" smooth="yes"/>
      <point x="103.0" y="710.0" type="line" smooth="yes"/>
      <point x="140.0" y="748.0" type="line" smooth="yes"/>
      <point x="221.0" y="656.0" type="line" smooth="yes"/>
      <point x="213.0" y="506.0" type="line" smooth="yes"/>
    </contour>
    <contour>
      <point x="115.0" y="38.0" type="line" smooth="yes"/>
      <point x="205.0" y="130.0" type="line" smooth="yes"/>
      <point x="346.0" y="130.0" type="line" smooth="yes"/>
      <point x="426.0" y="38.0" type="line" smooth="yes"/>
      <point x="389.0" y="0.0" type="line" smooth="yes"/>
      <point x="148.0" y="0.0" type="line" smooth="yes"/>
    </contour>
    <contour>
      <point x="435.0" y="52.0" type="line" smooth="yes"/>
      <point x="354.0" y="144.0" type="line" smooth="yes"/>
      <point x="362.0" y="294.0" type="line" smooth="yes"/>
      <point x="452.0" y="386.0" type="line" smooth="yes"/>
      <point x="486.0" y="348.0" type="line" smooth="yes"/>
      <point x="472.0" y="90.0" type="line" smooth="yes"/>
    </contour>
    <contour>
      <point x="509.92578125" y="762.0" type="line" smooth="yes"/>
      <point x="419.92578125" y="670.0" type="line" smooth="yes"/>
      <point x="278.92578125" y="670.0" type="line" smooth="yes"/>
      <point x="198.92578125" y="762.0" type="line" smooth="yes"/>
      <point x="235.92578125" y="800.0" type="line" smooth="yes"/>
      <point x="476.92578125" y="800.0" type="line" smooth="yes"/>
    </contour>
  </outline>
</glyph>
<glyph name="percent" format="2">
  <advance width="583"/>
  <unicode hex="0025"/>
  <outline>
    <contour>
      <point x="467.0" y="0.0" type="curve" smooth="yes"/>
      <point x="469.0" y="39.0"/>
      <point x="500.0" y="70.0"/>
      <point x="536.0" y="70.0" type="curve" smooth="yes"/>
      <point x="572.0" y="70.0"/>
      <point x="599.0" y="39.0"/>
      <point x="597.0" y="0.0" type="curve" smooth="yes"/>
      <point x="595.0" y="-39.0"/>
      <point x="564.0" y="-70.0"/>
      <point x="528.0" y="-70.0" type="curve" smooth="yes"/>
      <point x="492.0" y="-70.0"/>
      <point x="465.0" y="-39.0"/>
    </contour>
    <contour>
      <point x="134.0" y="400.0" type="line" smooth="yes"/>
      <point x="198.0" y="465.0" type="line" smooth="yes"/>
      <point x="388.0" y="465.0" type="line" smooth="yes"/>
      <point x="445.0" y="400.0" type="line" smooth="yes"/>
      <point x="381.0" y="335.0" type="line" smooth="yes"/>
      <point x="191.0" y="335.0" type="line" smooth="yes"/>
    </contour>
    <contour>
      <point x="104.0" y="52.0" type="line" smooth="yes"/>
      <point x="70.0" y="90.0" type="line" smooth="yes"/>
      <point x="84.0" y="348.0" type="line" smooth="yes"/>
      <point x="121.0" y="386.0" type="line" smooth="yes"/>
      <point x="202.0" y="294.0" type="line" smooth="yes"/>
      <point x="194.0" y="144.0" type="line" smooth="yes"/>
    </contour>
    <contour>
      <point x="454.0" y="414.0" type="line" smooth="yes"/>
      <point x="373.0" y="506.0" type="line" smooth="yes"/>
      <point x="381.0" y="656.0" type="line" smooth="yes"/>
      <point x="471.0" y="748.0" type="line" smooth="yes"/>
      <point x="505.0" y="710.0" type="line" smooth="yes"/>
      <point x="491.0" y="452.0" type="line" smooth="yes"/>
    </contour>
  </outline>
</glyph>
<glyph name="quotesingle" format="2">
  <advance width="583"/>
  <unicode hex="0027"/>
  <outline>
    <contour>
      <point x="132.0" y="414.0" type="line" smooth="yes"/>
      <point x="96.0" y="452.0" type="line" smooth="yes"/>
      <point x="109.0" y="710.0" type="line" smooth="yes"/>
      <point x="149.0" y="748.0" type="line" smooth="yes"/>
      <point x="236.0" y="656.0" type="line" smooth="yes"/>
      <point x="228.0" y="506.0" type="line" smooth="yes"/>
    </contour>
  </outline>
</glyph>
<glyph name="parenleft" format="2">
  <advance width="583"/>
  <unicode hex="0028"/>
  <outline>
    <contour>
      <point x="88.0" y="414.0" type="line" smooth="yes"/>
      <point x="48.0" y="452.0" type="line" smooth="yes"/>
      <point x="35.0" y="710.0" type="line" smooth="yes"/>
      <point x="71.0" y="748.0" type="line" smooth="yes"/>
      <point x="168.0" y="656.0" type="line" smooth="yes"/>
      <point x="176.0" y="506.0" type="line" smooth="yes"/>
    </contour>
    <contour>
      <point x="107.0" y="52.0" type="line" smooth="yes"/>
      <point x="67.0" y="90.0" type="line" smooth="yes"/>
      <point x="54.0" y="348.0" type="line" smooth="yes"/>
      <point x="90.0" y="386.0" type="line" smooth="yes"/>
      <point x="187.0" y="294.0" type="line" smooth="yes"/>
      <point x="194.0" y="144.0" type="line" smooth="yes"/>
    </contour>
    <contour>
      <point x="122.0" y="38.0" type="line" smooth="yes"/>
      <point x="209.0" y="130.0" type="line" smooth="yes"/>
      <point x="360.0" y="130.0" type="line" smooth="yes"/>
      <point x="457.0" y="38.0" type="line" smooth="yes"/>
      <point x="421.0" y="0.0" type="line" smooth="yes"/>
      <point x="162.0" y="0.0" type="line" smooth="yes"/>
    </contour>
    <contour>
      <point x="419.0" y="762.0" type="line" smooth="yes"/>
      <point x="332.0" y="670.0" type="line" smooth="yes"/>
      <point x="181.0" y="670.0" type="line" smooth="yes"/>
      <point x="84.0" y="762.0" type="line" smooth="yes"/>
      <point x="120.0" y="800.0" type="line" smooth="yes"/>
      <point x="379.0" y="800.0" type="line" smooth="yes"/>
    </contour>
  </outline>
</glyph>
<glyph name="hyphen" format="2">
  <advance width="583"/>
  <unicode hex="002D"/>
  <outline>
    <contour>
      <point x="103.0" y="400.0" type="line" smooth="yes"/>
      <point x="165.0" y="465.0" type="line" smooth="yes"/>
      <point x="370.0" y="465.0" type="line" smooth="yes"/>
      <point x="438.0" y="400.0" type="line" smooth="yes"/>
      <point x="376.0" y="335.0" type="line" smooth="yes"/>
      <point x="171.0" y="335.0" type="line" smooth="yes"/>
    </contour>
  </outline>
</glyph>
<glyph name="period" format="2">
  <unicode hex="002E"/>
  <outline>
    <contour>
      <point x="-116.0" y="0.0" type="curve" smooth="yes"/>
      <point x="-114.0" y="39.0"/>
      <point x="-83.0" y="70.0"/>
      <point x="-47.0" y="70.0" type="curve" smooth="yes"/>
      <point x="-11.0" y="70.0"/>
      <point x="16.0" y="39.0"/>
      <point x="14.0" y="0.0" type="curve" smooth="yes"/>
      <point x="12.0" y="-39.0"/>
      <point x="-19.0" y="-70.0"/>
      <point x="-55.0" y="-70.0" type="curve" smooth="yes"/>
      <point x="-91.0" y="-70.0"/>
      <point x="-118.0" y="-39.0"/>
    </contour>
  </outline>
</glyph>
<glyph name="slash" format="2">
  <advance width="583"/>
  <unicode hex="002F"/>
  <outline>
    <contour>
      <point x="134.0" y="400.0" type="line" smooth="yes"/>
      <point x="198.0" y="465.0" type="line" smooth="yes"/>
      <point x="388.0" y="465.0" type="line" smooth="yes"/>
      <point x="445.0" y="400.0" type="line" smooth="yes"/>
      <point x="381.0" y="335.0" type="line" smooth="yes"/>
      <point x="191.0" y="335.0" type="line" smooth="yes"/>
    </contour>
    <contour>
      <point x="104.0" y="52.0" type="line" smooth="yes"/>
      <point x="70.0" y="90.0" type="line" smooth="yes"/>
      <point x="84.0" y="348.0" type="line" smooth="yes"/>
      <point x="121.0" y="386.0" type="line" smooth="yes"/>
      <point x="202.0" y="294.0" type="line" smooth="yes"/>
      <point x="194.0" y="144.0" type="line" smooth="yes"/>
    </contour>
    <contour>
      <point x="454.0" y="414.0" type="line" smooth="yes"/>
      <point x="373.0" y="506.0" type="line" smooth="yes"/>
      <point x="381.0" y="656.0" type="line" smooth="yes"/>
      <point x="471.0" y="748.0" type="line" smooth="yes"/>
      <point x="505.0" y="710.0" type="line" smooth="yes"/>
      <point x="491.0" y="452.0" type="line" smooth="yes"/>
    </contour>
  </outline>
</glyph>
<glyph name="semicolon" format="2">
  <advance width="583"/>
  <unicode hex="003B"/>
  <outline>
    <contour>
      <point x="113.0" y="52.0" type="line" smooth="yes"/>
      <point x="77.0" y="90.0" type="line" smooth="yes"/>
      <point x="90.0" y="348.0" type="line" smooth="yes"/>
      <point x="130.0" y="386.0" type="line" smooth="yes"/>
      <point x="217.0" y="294.0" type="line" smooth="yes"/>
      <point x="210.0" y="144.0" type="line" smooth="yes"/>
    </contour>
    <contour>
      <point x="499.0" y="762.0" type="line" smooth="yes"/>
      <point x="402.0" y="670.0" type="line" smooth="yes"/>
      <point x="251.0" y="670.0" type="line" smooth="yes"/>
      <point x="164.0" y="762.0" type="line" smooth="yes"/>
      <point x="204.0" y="800.0" type="line" smooth="yes"/>
      <point x="463.0" y="800.0" type="line" smooth="yes"/>
    </contour>
  </outline>
</glyph>
<glyph name="less" format="2">
  <advance width="583"/>
  <unicode hex="003C"/>
  <outline>
    <contour>
      <point x="145.0" y="400.0" type="line" smooth="yes"/>
      <point x="213.0" y="465.0" type="line" smooth="yes"/>
      <point x="418.0" y="465.0" type="line" smooth="yes"/>
      <point x="480.0" y="400.0" type="line" smooth="yes"/>
      <point x="412.0" y="335.0" type="line" smooth="yes"/>
      <point x="207.0" y="335.0" type="line" smooth="yes"/>
    </contour>
    <contour>
      <point x="132.0" y="414.0" type="line" smooth="yes"/>
      <point x="96.0" y="452.0" type="line" smooth="yes"/>
      <point x="109.0" y="710.0" type="line" smooth="yes"/>
      <point x="149.0" y="748.0" type="line" smooth="yes"/>
      <point x="236.0" y="656.0" type="line" smooth="yes"/>
      <point x="228.0" y="506.0" type="line" smooth="yes"/>
    </contour>
    <contour>
      <point x="499.0" y="762.0" type="line" smooth="yes"/>
      <point x="402.0" y="670.0" type="line" smooth="yes"/>
      <point x="251.0" y="670.0" type="line" smooth="yes"/>
      <point x="164.0" y="762.0" type="line" smooth="yes"/>
      <point x="204.0" y="800.0" type="line" smooth="yes"/>
      <point x="463.0" y="800.0" type="line" smooth="yes"/>
    </contour>
  </outline>
</glyph>
<glyph name="equal" format="2">
  <advance width="583"/>
  <unicode hex="003D"/>
  <outline>
    <contour>
      <point x="134.0" y="400.0" type="line" smooth="yes"/>
      <point x="198.0" y="465.0" type="line" smooth="yes"/>
      <point x="388.0" y="465.0" type="line" smooth="yes"/>
      <point x="445.0" y="400.0" type="line" smooth="yes"/>
      <point x="381.0" y="335.0" type="line" smooth="yes"/>
      <point x="191.0" y="335.0" type="line" smooth="yes"/>
    </contour>
    <contour>
      <point x="115.0" y="38.0" type="line" smooth="yes"/>
      <point x="205.0" y="130.0" type="line" smooth="yes"/>
      <point x="346.0" y="130.0" type="line" smooth="yes"/>
      <point x="426.0" y="38.0" type="line" smooth="yes"/>
      <point x="389.0" y="0.0" type="line" smooth="yes"/>
      <point x="148.0" y="0.0" type="line" smooth="yes"/>
    </contour>
  </outline>
</glyph>
<glyph name="question" format="2">
  <advance width="583"/>
  <unicode hex="003F"/>
  <outline>
    <contour>
      <point x="145.0" y="400.0" type="line" smooth="yes"/>
      <point x="213.0" y="465.0" type="line" smooth="yes"/>
      <point x="418.0" y="465.0" type="line" smooth="yes"/>
      <point x="480.0" y="400.0" type="line" smooth="yes"/>
      <point x="412.0" y="335.0" type="line" smooth="yes"/>
      <point x="207.0" y="335.0" type="line" smooth="yes"/>
    </contour>
    <contour>
      <point x="113.0" y="52.0" type="line" smooth="yes"/>
      <point x="77.0" y="90.0" type="line" smooth="yes"/>
      <point x="90.0" y="348.0" type="line" smooth="yes"/>
      <point x="130.0" y="386.0" type="line" smooth="yes"/>
      <point x="217.0" y="294.0" type="line" smooth="yes"/>
      <point x="210.0" y="144.0" type="line" smooth="yes"/>
    </contour>
    <contour>
      <point x="495.0" y="414.0" type="line" smooth="yes"/>
      <point x="407.0" y="506.0" type="line" smooth="yes"/>
      <point x="415.0" y="656.0" type="line" smooth="yes"/>
      <point x="512.0" y="748.0" type="line" smooth="yes"/>
      <point x="548.0" y="710.0" type="line" smooth="yes"/>
      <point x="535.0" y="452.0" type="line" smooth="yes"/>
    </contour>
    <contour>
      <point x="499.0" y="762.0" type="line" smooth="yes"/>
      <point x="402.0" y="670.0" type="line" smooth="yes"/>
      <point x="251.0" y="670.0" type="line" smooth="yes"/>
      <point x="164.0" y="762.0" type="line" smooth="yes"/>
      <point x="204.0" y="800.0" type="line" smooth="yes"/>
      <point x="463.0" y="800.0" type="line" smooth="yes"/>
    </contour>
  </outline>
</glyph>
<glyph name="A" format="2">
  <advance width="583"/>
  <unicode hex="0041"/>
  <outline>
    <contour>
      <point x="134.0" y="400.0" type="line" smooth="yes"/>
      <point x="198.0" y="465.0" type="line" smooth="yes"/>
      <point x="388.0" y="465.0" type="line" smooth="yes"/>
      <point x="445.0" y="400.0" type="line" smooth="yes"/>
      <point x="381.0" y="335.0" type="line" smooth="yes"/>
      <point x="191.0" y="335.0" type="line" smooth="yes"/>
    </contour>
    <contour>
      <point x="123.0" y="414.0" type="line" smooth="yes"/>
      <point x="89.0" y="452.0" type="line" smooth="yes"/>
      <point x="103.0" y="710.0" type="line" smooth="yes"/>
      <point x="140.0" y="748.0" type="line" smooth="yes"/>
      <point x="221.0" y="656.0" type="line" smooth="yes"/>
      <point x="213.0" y="506.0" type="line" smooth="yes"/>
    </contour>
    <contour>
      <point x="104.0" y="52.0" type="line" smooth="yes"/>
      <point x="70.0" y="90.0" type="line" smooth="yes"/>
      <point x="84.0" y="348.0" type="line" smooth="yes"/>
      <point x="121.0" y="386.0" type="line" smooth="yes"/>
      <point x="202.0" y="294.0" type="line" smooth="yes"/>
      <point x="194.0" y="144.0" type="line" smooth="yes"/>
    </contour>
    <contour>
      <point x="435.0" y="52.0" type="line" smooth="yes"/>
      <point x="354.0" y="144.0" type="line" smooth="yes"/>
      <point x="362.0" y="294.0" type="line" smooth="yes"/>
      <point x="452.0" y="386.0" type="line" smooth="yes"/>
      <point x="486.0" y="348.0" type="line" smooth="yes"/>
      <point x="472.0" y="90.0" type="line" smooth="yes"/>
    </contour>
    <contour>
      <point x="454.0" y="414.0" type="line" smooth="yes"/>
      <point x="373.0" y="506.0" type="line" smooth="yes"/>
      <point x="381.0" y="656.0" type="line" smooth="yes"/>
      <point x="471.0" y="748.0" type="line" smooth="yes"/>
      <point x="505.0" y="710.0" type="line" smooth="yes"/>
      <point x="491.0" y="452.0" type="line" smooth="yes"/>
    </contour>
    <contour>
      <point x="509.92578125" y="762.0" type="line" smooth="yes"/>
      <point x="419.92578125" y="670.0" type="line" smooth="yes"/>
      <point x="278.92578125" y="670.0" type="line" smooth="yes"/>
      <point x="198.92578125" y="762.0" type="line" smooth="yes"/>
      <point x="235.92578125" y="800.0" type="line" smooth="yes"/>
      <point x="476.92578125" y="800.0" type="line" smooth="yes"/>
    </contour>
  </outline>
</glyph>
<glyph name="R" format="2">
  <advance width="583"/>
  <unicode hex="0052"/>
  <outline>
    <contour>
      <point x="123.0" y="414.0" type="line" smooth="yes"/>
      <point x="89.0" y="452.0" type="line" smooth="yes"/>
      <point x="103.0" y="710.0" type="line" smooth="yes"/>
      <point x="140.0" y="748.0" type="line" smooth="yes"/>
      <point x="221.0" y="656.0" type="line" smooth="yes"/>
      <point x="213.0" y="506.0" type="line" smooth="yes"/>
    </contour>
    <contour>
      <point x="104.0" y="52.0" type="line" smooth="yes"/>
      <point x="70.0" y="90.0" type="line" smooth="yes"/>
      <point x="84.0" y="348.0" type="line" smooth="yes"/>
      <point x="121.0" y="386.0" type="line" smooth="yes"/>
      <point x="202.0" y="294.0" type="line" smooth="yes"/>
      <point x="194.0" y="144.0" type="line" smooth="yes"/>
    </contour>
    <contour>
      <point x="454.0" y="414.0" type="line" smooth="yes"/>
      <point x="373.0" y="506.0" type="line" smooth="yes"/>
      <point x="381.0" y="656.0" type="line" smooth="yes"/>
      <point x="471.0" y="748.0" type="line" smooth="yes"/>
      <point x="505.0" y="710.0" type="line" smooth="yes"/>
      <point x="491.0" y="452.0" type="line" smooth="yes"/>
    </contour>
    <contour>
      <point x="509.92578125" y="762.0" type="line" smooth="yes"/>
      <point x="419.92578125" y="670.0" type="line" smooth="yes"/>
      <point x="278.92578125" y="670.0" type="line" smooth="yes"/>
      <point x="198.92578125" y="762.0" type="line" smooth="yes"/>
      <point x="235.92578125" y="800.0" type="line" smooth="yes"/>
      <point x="476.92578125" y="800.0" type="line" smooth="yes"/>
    </contour>
  </outline>
</glyph>
<glyph name="W" format="2">
  <advance width="583"/>
  <unicode hex="0057"/>
  <outline>
    <contour>
      <point x="104.0" y="52.0" type="line" smooth="yes"/>
      <point x="70.0" y="90.0" type="line" smooth="yes"/>
      <point x="84.0" y="348.0" type="line" smooth="yes"/>
      <point x="121.0" y="386.0" type="line" smooth="yes"/>
      <point x="202.0" y="294.0" type="line" smooth="yes"/>
      <point x="194.0" y="144.0" type="line" smooth="yes"/>
    </contour>
    <contour>
      <point x="115.0" y="38.0" type="line" smooth="yes"/>
      <point x="205.0" y="130.0" type="line" smooth="yes"/>
      <point x="346.0" y="130.0" type="line" smooth="yes"/>
      <point x="426.0" y="38.0" type="line" smooth="yes"/>
      <point x="389.0" y="0.0" type="line" smooth="yes"/>
      <point x="148.0" y="0.0" type="line" smooth="yes"/>
    </contour>
    <contour>
      <point x="435.0" y="52.0" type="line" smooth="yes"/>
      <point x="354.0" y="144.0" type="line" smooth="yes"/>
      <point x="362.0" y="294.0" type="line" smooth="yes"/>
      <point x="452.0" y="386.0" type="line" smooth="yes"/>
      <point x="486.0" y="348.0" type="line" smooth="yes"/>
      <point x="472.0" y="90.0" type="line" smooth="yes"/>
    </contour>
    <contour>
      <point x="464.0" y="762.0" type="line" smooth="yes"/>
      <point x="374.0" y="670.0" type="line" smooth="yes"/>
      <point x="234.0" y="670.0" type="line" smooth="yes"/>
      <point x="153.0" y="762.0" type="line" smooth="yes"/>
      <point x="190.0" y="800.0" type="line" smooth="yes"/>
      <point x="431.0" y="800.0" type="line" smooth="yes"/>
    </contour>
  </outline>
</glyph>
<glyph name="Y" format="2">
  <advance width="583"/>
  <unicode hex="0059"/>
  <outline>
    <contour>
      <point x="145.0" y="400.0" type="line" smooth="yes"/>
      <point x="213.0" y="465.0" type="line" smooth="yes"/>
      <point x="418.0" y="465.0" type="line" smooth="yes"/>
      <point x="480.0" y="400.0" type="line" smooth="yes"/>
      <point x="412.0" y="335.0" type="line" smooth="yes"/>
      <point x="207.0" y="335.0" type="line" smooth="yes"/>
    </contour>
    <contour>
      <point x="132.0" y="414.0" type="line" smooth="yes"/>
      <point x="96.0" y="452.0" type="line" smooth="yes"/>
      <point x="109.0" y="710.0" type="line" smooth="yes"/>
      <point x="149.0" y="748.0" type="line" smooth="yes"/>
      <point x="236.0" y="656.0" type="line" smooth="yes"/>
      <point x="228.0" y="506.0" type="line" smooth="yes"/>
    </contour>
    <contour>
      <point x="126.0" y="38.0" type="line" smooth="yes"/>
      <point x="223.0" y="130.0" type="line" smooth="yes"/>
      <point x="374.0" y="130.0" type="line" smooth="yes"/>
      <point x="461.0" y="38.0" type="line" smooth="yes"/>
      <point x="421.0" y="0.0" type="line" smooth="yes"/>
      <point x="162.0" y="0.0" type="line" smooth="yes"/>
    </contour>
    <contour>
      <point x="476.0" y="52.0" type="line" smooth="yes"/>
      <point x="389.0" y="144.0" type="line" smooth="yes"/>
      <point x="396.0" y="294.0" type="line" smooth="yes"/>
      <point x="493.0" y="386.0" type="line" smooth="yes"/>
      <point x="529.0" y="348.0" type="line" smooth="yes"/>
      <point x="516.0" y="90.0" type="line" smooth="yes"/>
    </contour>
    <contour>
      <point x="495.0" y="414.0" type="line" smooth="yes"/>
      <point x="407.0" y="506.0" type="line" smooth="yes"/>
      <point x="415.0" y="656.0" type="line" smooth="yes"/>
      <point x="512.0" y="748.0" type="line" smooth="yes"/>
      <point x="548.0" y="710.0" type="line" smooth="yes"/>
      <point x="535.0" y="452.0" type="line" smooth="yes"/>
    </contour>
  </outline>
</glyph>
<glyph name="asciicircum" format="2">
  <advance width="583"/>
  <unicode hex="005E"/>
  <outline>
    <contour>
      <point x="123.0" y="414.0" type="line" smooth="yes"/>
      <point x="89.0" y="452.0" type="line" smooth="yes"/>
      <point x="103.0" y="710.0" type="line" smooth="yes"/>
      <point x="140.0" y="748.0" type="line" smooth="yes"/>
      <point x="221.0" y="656.0" type="line" smooth="yes"/>
      <point x="213.0" y="506.0" type="line" smooth="yes"/>
    </contour>
    <contour>
      <point x="454.0" y="414.0" type="line" smooth="yes"/>
      <point x="373.0" y="506.0" type="line" smooth="yes"/>
      <point x="381.0" y="656.0" type="line" smooth="yes"/>
      <point x="471.0" y="748.0" type="line" smooth="yes"/>
      <point x="505.0" y="710.0" type="line" smooth="yes"/>
      <point x="491.0" y="452.0" type="line" smooth="yes"/>
    </contour>
    <contour>
      <point x="464.0" y="762.0" type="line" smooth="yes"/>
      <point x="374.0" y="670.0" type="line" smooth="yes"/>
      <point x="234.0" y="670.0" type="line" smooth="yes"/>
      <point x="153.0" y="762.0" type="line" smooth="yes"/>
      <point x="190.0" y="800.0" type="line" smooth="yes"/>
      <point x="431.0" y="800.0" type="line" smooth="yes"/>
    </contour>
  </outline>
</glyph>
<glyph name="underscore" format="2">
  <advance width="583"/>
  <unicode hex="005F"/>
  <outline>
    <contour>
      <point x="115.0" y="38.0" type="line" smooth="yes"/>
      <point x="205.0" y="130.0" type="line" smooth="yes"/>
      <point x="346.0" y="130.0" type="line" smooth="yes"/>
      <point x="426.0" y="38.0" type="line" smooth="yes"/>
      <point x="389.0" y="0.0" type="line" smooth="yes"/>
      <point x="148.0" y="0.0" type="line" smooth="yes"/>
    </contour>
  </outline>
</glyph>
<glyph name="c" format="2">
  <advance width="583"/>
  <unicode hex="0063"/>
  <outline>
    <contour>
      <point x="145.0" y="400.0" type="line" smooth="yes"/>
      <point x="213.0" y="465.0" type="line" smooth="yes"/>
      <point x="418.0" y="465.0" type="line" smooth="yes"/>
      <point x="480.0" y="400.0" type="line" smooth="yes"/>
      <point x="412.0" y="335.0" type="line" smooth="yes"/>
      <point x="207.0" y="335.0" type="line" smooth="yes"/>
    </contour>
    <contour>
      <point x="113.0" y="52.0" type="line" smooth="yes"/>
      <point x="77.0" y="90.0" type="line" smooth="yes"/>
      <point x="90.0" y="348.0" type="line" smooth="yes"/>
      <point x="130.0" y="386.0" type="line" smooth="yes"/>
      <point x="217.0" y="294.0" type="line" smooth="yes"/>
      <point x="210.0" y="144.0" type="line" smooth="yes"/>
    </contour>
    <contour>
      <point x="126.0" y="38.0" type="line" smooth="yes"/>
      <point x="223.0" y="130.0" type="line" smooth="yes"/>
      <point x="374.0" y="130.0" type="line" smooth="yes"/>
      <point x="461.0" y="38.0" type="line" smooth="yes"/>
      <point x="421.0" y="0.0" type="line" smooth="yes"/>
      <point x="162.0" y="0.0" type="line" smooth="yes"/>
    </contour>
  </outline>
</glyph>
<glyph name="h" format="2">
  <advance width="583"/>
  <unicode hex="0068"/>
  <outline>
    <contour>
      <point x="103.0" y="400.0" type="line" smooth="yes"/>
      <point x="165.0" y="465.0" type="line" smooth="yes"/>
      <point x="370.0" y="465.0" type="line" smooth="yes"/>
      <point x="438.0" y="400.0" type="line" smooth="yes"/>
      <point x="376.0" y="335.0" type="line" smooth="yes"/>
      <point x="171.0" y="335.0" type="line" smooth="yes"/>
    </contour>
    <contour>
      <point x="88.0" y="414.0" type="line" smooth="yes"/>
      <point x="48.0" y="452.0" type="line" smooth="yes"/>
      <point x="35.0" y="710.0" type="line" smooth="yes"/>
      <point x="71.0" y="748.0" type="line" smooth="yes"/>
      <point x="168.0" y="656.0" type="line" smooth="yes"/>
      <point x="176.0" y="506.0" type="line" smooth="yes"/>
    </contour>
    <contour>
      <point x="107.0" y="52.0" type="line" smooth="yes"/>
      <point x="67.0" y="90.0" type="line" smooth="yes"/>
      <point x="54.0" y="348.0" type="line" smooth="yes"/>
      <point x="90.0" y="386.0" type="line" smooth="yes"/>
      <point x="187.0" y="294.0" type="line" smooth="yes"/>
      <point x="194.0" y="144.0" type="line" smooth="yes"/>
    </contour>
    <contour>
      <point x="470.0" y="52.0" type="line" smooth="yes"/>
      <point x="373.0" y="144.0" type="line" smooth="yes"/>
      <point x="366.0" y="294.0" type="line" smooth="yes"/>
      <point x="453.0" y="386.0" type="line" smooth="yes"/>
      <point x="493.0" y="348.0" type="line" smooth="yes"/>
      <point x="506.0" y="90.0" type="line" smooth="yes"/>
    </contour>
  </outline>
</glyph>
<glyph name="i" format="2">
  <advance width="583"/>
  <unicode hex="0069"/>
  <outline>
    <contour>
      <point x="435.0" y="52.0" type="line" smooth="yes"/>
      <point x="354.0" y="144.0" type="line" smooth="yes"/>
      <point x="362.0" y="294.0" type="line" smooth="yes"/>
      <point x="452.0" y="386.0" type="line" smooth="yes"/>
      <point x="486.0" y="348.0" type="line" smooth="yes"/>
      <point x="472.0" y="90.0" type="line" smooth="yes"/>
    </contour>
  </outline>
</glyph>
<glyph name="r" format="2">
  <advance width="583"/>
  <unicode hex="0072"/>
  <outline>
    <contour>
      <point x="145.0" y="400.0" type="line" smooth="yes"/>
      <point x="213.0" y="465.0" type="line" smooth="yes"/>
      <point x="418.0" y="465.0" type="line" smooth="yes"/>
      <point x="480.0" y="400.0" type="line" smooth="yes"/>
      <point x="412.0" y="335.0" type="line" smooth="yes"/>
      <point x="207.0" y="335.0" type="line" smooth="yes"/>
    </contour>
    <contour>
      <point x="113.0" y="52.0" type="line" smooth="yes"/>
      <point x="77.0" y="90.0" type="line" smooth="yes"/>
      <point x="90.0" y="348.0" type="line" smooth="yes"/>
      <point x="130.0" y="386.0" type="line" smooth="yes"/>
      <point x="217.0" y="294.0" type="line" smooth="yes"/>
      <point x="210.0" y="144.0" type="line" smooth="yes"/>
    </contour>
  </outline>
</glyph>
<glyph name="u" format="2">
  <advance width="583"/>
  <unicode hex="0075"/>
  <outline>
    <contour>
      <point x="113.0" y="52.0" type="line" smooth="yes"/>
      <point x="77.0" y="90.0" type="line" smooth="yes"/>
      <point x="90.0" y="348.0" type="line" smooth="yes"/>
      <point x="130.0" y="386.0" type="line" smooth="yes"/>
      <point x="217.0" y="294.0" type="line" smooth="yes"/>
      <point x="210.0" y="144.0" type="line" smooth="yes"/>
    </contour>
    <contour>
      <point x="126.0" y="38.0" type="line" smooth="yes"/>
      <point x="223.0" y="130.0" type="line" smooth="yes"/>
      <point x="374.0" y="130.0" type="line" smooth="yes"/>
      <point x="461.0" y="38.0" type="line" smooth="yes"/>
      <point x="421.0" y="0.0" type="line" smooth="yes"/>
      <point x="162.0" y="0.0" type="line" smooth="yes"/>
    </contour>
    <contour>
      <point x="476.0" y="52.0" type="line" smooth="yes"/>
      <point x="389.0" y="144.0" type="line" smooth="yes"/>
      <point x="396.0" y="294.0" type="line" smooth="yes"/>
      <point x="493.0" y="386.0" type="line" smooth="yes"/>
      <point x="529.0" y="348.0" type="line" smooth="yes"/>
      <point x="516.0" y="90.0" type="line" smooth="yes"/>
    </contour>
  </outline>
</glyph>
<glyph name="asciitilde" format="2">
  <advance width="583"/>
  <unicode hex="007E"/>
  <outline>
    <contour>
      <point x="499.0" y="762.0" type="line" smooth="yes"/>
      <point x="402.0" y="670.0" type="line" smooth="yes"/>
      <point x="251.0" y="670.0" type="line" smooth="yes"/>
      <point x="164.0" y="762.0" type="line" smooth="yes"/>
      <point x="204.0" y="800.0" type="line" smooth="yes"/>
      <point x="463.0" y="800.0" type="line" smooth="yes"/>
    </contour>
  </outline>
</glyph>
<glyph name="logicalnot" format="2">
  <advance width="583"/>
  <unicode hex="00AC"/>
  <outline>
    <contour>
      <point x="134.0" y="400.0" type="line" smooth="yes"/>
      <point x="198.0" y="465.0" type="line" smooth="yes"/>
      <point x="388.0" y="465.0" type="line" smooth="yes"/>
      <point x="445.0" y="400.0" type="line" smooth="yes"/>
      <point x="381.0" y="335.0" type="line" smooth="yes"/>
      <point x="191.0" y="335.0" type="line" smooth="yes"/>
    </contour>
    <contour>
      <point x="435.0" y="52.0" type="line" smooth="yes"/>
      <point x="354.0" y="144.0" type="line" smooth="yes"/>
      <point x="362.0" y="294.0" type="line" smooth="yes"/>
      <point x="452.0" y="386.0" type="line" smooth="yes"/>
      <point x="486.0" y="348.0" type="line" smooth="yes"/>
      <point x="472.0" y="90.0" type="line" smooth="yes"/>
    </contour>
  </outline>
</glyph>
<glyph name="daggerdbl" format="2">
  <advance width="583"/>
  <unicode hex="2021"/>
  <outline>
    <contour>
      <point x="134.0" y="400.0" type="line" smooth="yes"/>
      <point x="198.0" y="465.0" type="line" smooth="yes"/>
      <point x="388.0" y="465.0" type="line" smooth="yes"/>
      <point x="445.0" y="400.0" type="line" smooth="yes"/>
      <point x="381.0" y="335.0" type="line" smooth="yes"/>
      <point x="191.0" y="335.0" type="line" smooth="yes"/>
    </contour>
    <contour>
      <point x="435.0" y="52.0" type="line" smooth="yes"/>
      <point x="354.0" y="144.0" type="line" smooth="yes"/>
      <point x="362.0" y="294.0" type="line" smooth="yes"/>
      <point x="452.0" y="386.0" type="line" smooth="yes"/>
      <point x="486.0" y="348.0" type="line" smooth="yes"/>
      <point x="472.0" y="90.0" type="line" smooth="yes"/>
    </contour>
    <contour>
      <point x="454.0" y="414.0" type="line" smooth="yes"/>
      <point x="373.0" y="506.0" type="line" smooth="yes"/>
      <point x="381.0" y="656.0" type="line" smooth="yes"/>
      <point x="471.0" y="748.0" type="line" smooth="yes"/>
      <point x="505.0" y="710.0" type="line" smooth="yes"/>
      <point x="491.0" y="452.0" type="line" smooth="yes"/>
    </contour>
    <contour>
      <point x="464.0" y="762.0" type="line" smooth="yes"/>
      <point x="374.0" y="670.0" type="line" smooth="yes"/>
      <point x="234.0" y="670.0" type="line" smooth="yes"/>
      <point x="153.0" y="762.0" type="line" smooth="yes"/>
      <point x="190.0" y="800.0" type="line" smooth="yes"/>
      <point x="431.0" y="800.0" type="line" smooth="yes"/>
    </contour>
  </outline>
</glyph>
<glyph name="ellipsis" format="2">
  <advance width="583"/>
  <unicode hex="2026"/>
  <outline>
    <contour>
      <point x="513.0" y="0.0" type="curve" smooth="yes"/>
      <point x="511.0" y="39.0"/>
      <point x="540.0" y="70.0"/>
      <point x="579.0" y="70.0" type="curve" smooth="yes"/>
      <point x="618.0" y="70.0"/>
      <point x="651.0" y="39.0"/>
      <point x="653.0" y="0.0" type="curve" smooth="yes"/>
      <point x="655.0" y="-39.0"/>
      <point x="626.0" y="-70.0"/>
      <point x="587.0" y="-70.0" type="curve" smooth="yes"/>
      <point x="548.0" y="-70.0"/>
      <point x="515.0" y="-39.0"/>
    </contour>
    <contour>
      <point x="107.0" y="52.0" type="line" smooth="yes"/>
      <point x="67.0" y="90.0" type="line" smooth="yes"/>
      <point x="54.0" y="348.0" type="line" smooth="yes"/>
      <point x="90.0" y="386.0" type="line" smooth="yes"/>
      <point x="187.0" y="294.0" type="line" smooth="yes"/>
      <point x="194.0" y="144.0" type="line" smooth="yes"/>
    </contour>
    <contour>
      <point x="470.0" y="52.0" type="line" smooth="yes"/>
      <point x="373.0" y="144.0" type="line" smooth="yes"/>
      <point x="366.0" y="294.0" type="line" smooth="yes"/>
      <point x="453.0" y="386.0" type="line" smooth="yes"/>
      <point x="493.0" y="348.0" type="line" smooth="yes"/>
      <point x="506.0" y="90.0" type="line" smooth="yes"/>
    </contour>
  </outline>
</glyph>
<glyph name="unie000" format="2">
  <advance width="583"/>
  <unicode hex="E000"/>
  <outline>
    <contour>
      <point x="513.0" y="0.0" type="curve" smooth="yes"/>
      <point x="513.0" y="39.0"/>
      <point x="544.0" y="70.0"/>
      <point x="583.0" y="70.0" type="curve" smooth="yes"/>
      <point x="622.0" y="70.0"/>
      <point x="653.0" y="39.0"/>
      <point x="653.0" y="0.0" type="curve" smooth="yes"/>
      <point x="653.0" y="-39.0"/>
      <point x="622.0" y="-70.0"/>
      <point x="583.0" y="-70.0" type="curve" smooth="yes"/>
      <point x="544.0" y="-70.0"/>
      <point x="513.0" y="-39.0"/>
    </contour>
    <contour>
      <point x="145.0" y="400.0" type="line" smooth="yes"/>
      <point x="213.0" y="465.0" type="line" smooth="yes"/>
      <point x="418.0" y="465.0" type="line" smooth="yes"/>
      <point x="480.0" y="400.0" type="line" smooth="yes"/>
      <point x="412.0" y="335.0" type="line" smooth="yes"/>
      <point x="207.0" y="335.0" type="line" smooth="yes"/>
    </contour>
    <contour>
      <point x="132.0" y="414.0" type="line" smooth="yes"/>
      <point x="96.0" y="452.0" type="line" smooth="yes"/>
      <point x="109.0" y="710.0" type="line" smooth="yes"/>
      <point x="149.0" y="748.0" type="line" smooth="yes"/>
      <point x="236.0" y="656.0" type="line" smooth="yes"/>
      <point x="228.0" y="506.0" type="line" smooth="yes"/>
    </contour>
    <contour>
      <point x="113.0" y="52.0" type="line" smooth="yes"/>
      <point x="77.0" y="90.0" type="line" smooth="yes"/>
      <point x="90.0" y="348.0" type="line" smooth="yes"/>
      <point x="130.0" y="386.0" type="line" smooth="yes"/>
      <point x="217.0" y="294.0" type="line" smooth="yes"/>
      <point x="210.0" y="144.0" type="line" smooth="yes"/>
    </contour>
    <contour>
      <point x="126.0" y="38.0" type="line" smooth="yes"/>
      <point x="223.0" y="130.0" type="line" smooth="yes"/>
      <point x="374.0" y="130.0" type="line" smooth="yes"/>
      <point x="461.0" y="38.0" type="line" smooth="yes"/>
      <point x="421.0" y="0.0" type="line" smooth="yes"/>
      <point x="162.0" y="0.0" type="line" smooth="yes"/>
    </contour>
    <contour>
      <point x="476.0" y="52.0" type="line" smooth="yes"/>
      <point x="389.0" y="144.0" type="line" smooth="yes"/>
      <point x="396.0" y="294.0" type="line" smooth="yes"/>
      <point x="493.0" y="386.0" type="line" smooth="yes"/>
      <point x="529.0" y="348.0" type="line" smooth="yes"/>
      <point x="516.0" y="90.0" type="line" smooth="yes"/>
    </contour>
    <contour>
      <point x="495.0" y="414.0" type="line" smooth="yes"/>
      <point x="407.0" y="506.0" type="line" smooth="yes"/>
      <point x="415.0" y="656.0" type="line" smooth="yes"/>
      <point x="512.0" y="748.0" type="line" smooth="yes"/>
      <point x="548.0" y="710.0" type="line" smooth="yes"/>
      <point x="535.0" y="452.0" type="line" smooth="yes"/>
    </contour>
    <contour>
      <point x="499.0" y="762.0" type="line" smooth="yes"/>
      <point x="402.0" y="670.0" type="line" smooth="yes"/>
      <point x="251.0" y="670.0" type="line" smooth="yes"/>
      <point x="164.0" y="762.0" type="line" smooth="yes"/>
      <point x="204.0" y="800.0" type="line" smooth="yes"/>
      <point x="463.0" y="800.0" type="line" smooth="yes"/>
    </contour>
  </outline>
</glyph>
<glyph name="unie653" format="2">
  <advance width="583"/>
  <unicode hex="E653"/>
  <outline>
    <contour>
      <point x="88.0" y="414.0" type="line" smooth="yes"/>
      <point x="48.0" y="452.0" type="line" smooth="yes"/>
      <point x="35.0" y="710.0" type="line" smooth="yes"/>
      <point x="71.0" y="748.0" type="line" smooth="yes"/>
      <point x="168.0" y="656.0" type="line" smooth="yes"/>
      <point x="176.0" y="506.0" type="line" smooth="yes"/>
    </contour>
    <contour>
      <point x="107.0" y="52.0" type="line" smooth="yes"/>
      <point x="67.0" y="90.0" type="line" smooth="yes"/>
      <point x="54.0" y="348.0" type="line" smooth="yes"/>
      <point x="90.0" y="386.0" type="line" smooth="yes"/>
      <point x="187.0" y="294.0" type="line" smooth="yes"/>
      <point x="194.0" y="144.0" type="line" smooth="yes"/>
    </contour>
    <contour>
      <point x="122.0" y="38.0" type="line" smooth="yes"/>
      <point x="209.0" y="130.0" type="line" smooth="yes"/>
      <point x="360.0" y="130.0" type="line" smooth="yes"/>
      <point x="457.0" y="38.0" type="line" smooth="yes"/>
      <point x="421.0" y="0.0" type="line" smooth="yes"/>
      <point x="162.0" y="0.0" type="line" smooth="yes"/>
    </contour>
    <contour>
      <point x="470.0" y="52.0" type="line" smooth="yes"/>
      <point x="373.0" y="144.0" type="line" smooth="yes"/>
      <point x="366.0" y="294.0" type="line" smooth="yes"/>
      <point x="453.0" y="386.0" type="line" smooth="yes"/>
      <point x="493.0" y="348.0" type="line" smooth="yes"/>
      <point x="506.0" y="90.0" type="line" smooth="yes"/>
    </contour>
  </outline>
</glyph>
<glyph name="unie655" format="2">
  <advance width="583"/>
  <unicode hex="E655"/>
  <outline>
    <contour>
      <point x="145.0" y="400.0" type="line" smooth="yes"/>
      <point x="213.0" y="465.0" type="line" smooth="yes"/>
      <point x="418.0" y="465.0" type="line" smooth="yes"/>
      <point x="480.0" y="400.0" type="line" smooth="yes"/>
      <point x="412.0" y="335.0" type="line" smooth="yes"/>
      <point x="207.0" y="335.0" type="line" smooth="yes"/>
    </contour>
    <contour>
      <point x="132.0" y="414.0" type="line" smooth="yes"/>
      <point x="96.0" y="452.0" type="line" smooth="yes"/>
      <point x="109.0" y="710.0" type="line" smooth="yes"/>
      <point x="149.0" y="748.0" type="line" smooth="yes"/>
      <point x="236.0" y="656.0" type="line" smooth="yes"/>
      <point x="228.0" y="506.0" type="line" smooth="yes"/>
    </contour>
    <contour>
      <point x="476.0" y="52.0" type="line" smooth="yes"/>
      <point x="389.0" y="144.0" type="line" smooth="yes"/>
      <point x="396.0" y="294.0" type="line" smooth="yes"/>
      <point x="493.0" y="386.0" type="line" smooth="yes"/>
      <point x="529.0" y="348.0" type="line" smooth="yes"/>
      <point x="516.0" y="90.0" type="line" smooth="yes"/>
    </contour>
    <contour>
      <point x="499.0" y="762.0" type="line" smooth="yes"/>
      <point x="402.0" y="670.0" type="line" smooth="yes"/>
      <point x="251.0" y="670.0" type="line" smooth="yes"/>
      <point x="164.0" y="762.0" type="line" smooth="yes"/>
      <point x="204.0" y="800.0" type="line" smooth="yes"/>
      <point x="463.0" y="800.0" type="line" smooth="yes"/>
    </contour>
  </outline>
</glyph>
<glyph name="unie671" format="2">
  <advance width="583"/>
  <unicode hex="E671"/>
  <outline>
    <contour>
      <point x="104.0" y="52.0" type="line" smooth="yes"/>
      <point x="70.0" y="90.0" type="line" smooth="yes"/>
      <point x="84.0" y="348.0" type="line" smooth="yes"/>
      <point x="121.0" y="386.0" type="line" smooth="yes"/>
      <point x="202.0" y="294.0" type="line" smooth="yes"/>
      <point x="194.0" y="144.0" type="line" smooth="yes"/>
    </contour>
    <contour>
      <point x="435.0" y="52.0" type="line" smooth="yes"/>
      <point x="354.0" y="144.0" type="line" smooth="yes"/>
      <point x="362.0" y="294.0" type="line" smooth="yes"/>
      <point x="452.0" y="386.0" type="line" smooth="yes"/>
      <point x="486.0" y="348.0" type="line" smooth="yes"/>
      <point x="472.0" y="90.0" type="line" smooth="yes"/>
    </contour>
  </outline>
</glyph>
<glyph name="unie674" format="2">
  <advance width="583"/>
  <unicode hex="E674"/>
  <outline>
    <contour>
      <point x="126.0" y="38.0" type="line" smooth="yes"/>
      <point x="223.0" y="130.0" type="line" smooth="yes"/>
      <point x="374.0" y="130.0" type="line" smooth="yes"/>
      <point x="461.0" y="38.0" type="line" smooth="yes"/>
      <point x="421.0" y="0.0" type="line" smooth="yes"/>
      <point x="162.0" y="0.0" type="line" smooth="yes"/>
    </contour>
    <contour>
      <point x="476.0" y="52.0" type="line" smooth="yes"/>
      <point x="389.0" y="144.0" type="line" smooth="yes"/>
      <point x="396.0" y="294.0" type="line" smooth="yes"/>
      <point x="493.0" y="386.0" type="line" smooth="yes"/>
      <point x="529.0" y="348.0" type="line" smooth="yes"/>
      <point x="516.0" y="90.0" type="line" smooth="yes"/>
    </contour>
  </outline>
</glyph>
<glyph name="u1047e" format="2">
  <advance width="583"/>
  <unicode hex="1047E"/>
  <outline>
    <contour>
      <point x="103.0" y="400.0" type="line" smooth="yes"/>
      <point x="165.0" y="465.0" type="line" smooth="yes"/>
      <point x="370.0" y="465.0" type="line" smooth="yes"/>
      <point x="438.0" y="400.0" type="line" smooth="yes"/>
      <point x="376.0" y="335.0" type="line" smooth="yes"/>
      <point x="171.0" y="335.0" type="line" smooth="yes"/>
    </contour>
    <contour>
      <point x="107.0" y="52.0" type="line" smooth="yes"/>
      <point x="67.0" y="90.0" type="line" smooth="yes"/>
      <point x="54.0" y="348.0" type="line" smooth="yes"/>
      <point x="90.0" y="386.0" type="line" smooth="yes"/>
      <point x="187.0" y="294.0" type="line" smooth="yes"/>
      <point x="194.0" y="144.0" type="line" smooth="yes"/>
    </contour>
    <contour>
      <point x="419.0" y="762.0" type="line" smooth="yes"/>
      <point x="332.0" y="670.0" type="line" smooth="yes"/>
      <point x="181.0" y="670.0" type="line" smooth="yes"/>
      <point x="84.0" y="762.0" type="line" smooth="yes"/>
      <point x="120.0" y="800.0" type="line" smooth="yes"/>
      <point x="379.0" y="800.0" type="line" smooth="yes"/>
    </contour>
  </outline>
</glyph>
